<svg id="Livello_1" data-name="Livello 1" xmlns="http://www.w3.org/2000/svg" viewBox="0 0 205.71 302.83"><defs><style>.cls-1,.cls-3{fill:#1d1d1b;}.cls-1,.cls-4,.cls-5{stroke:#1d1d1b;stroke-width:5px;}.cls-1,.cls-4,.cls-5,.cls-6{stroke-miterlimit:10;}.cls-2{fill:#cd1417;}.cls-4,.cls-6{fill:none;}.cls-5{fill:#7a2684;}.cls-6{stroke:#7a2684;stroke-width:11px;}.cls-7{fill:#fefeff;}</style></defs><polygon class="cls-1" points="32.35 113.17 69.61 85.09 12.68 7.88 2.63 73.12 32.35 113.17"/><circle class="cls-2" cx="91.64" cy="149.59" r="70.81"/><circle class="cls-3" cx="91.91" cy="149.87" r="34.11"/><polygon class="cls-4" points="2.63 73.22 110.03 219.95 148.36 191.89 12.58 6.39 2.63 73.22"/><polygon class="cls-1" points="185.27 187.63 94.83 253.83 75.04 250.45 188.01 167.76 185.27 187.63"/><rect class="cls-5" x="303.37" y="361.44" width="29.37" height="10.27" transform="translate(-329.18 118.19) rotate(-36.2)"/><rect class="cls-5" x="311.01" y="371.88" width="29.37" height="10.27" transform="translate(-333.87 124.71) rotate(-36.2)"/><rect class="cls-5" x="318.32" y="381.86" width="29.37" height="10.27" transform="translate(-338.35 130.96) rotate(-36.2)"/><rect class="cls-5" x="325.96" y="392.31" width="29.37" height="10.27" transform="translate(-343.05 137.49) rotate(-36.2)"/><rect class="cls-5" x="333.2" y="402.19" width="29.37" height="10.27" transform="translate(-347.49 143.67) rotate(-36.2)"/><polygon class="cls-5" points="190.91 265.07 166.83 282.69 167.1 295.84 198.59 300.02 202.95 269.45 190.91 265.07"/><circle class="cls-6" cx="91.64" cy="149.59" r="39.37"/><circle class="cls-7" cx="115.28" cy="125.96" r="15.73"/><path class="cls-3" d="M273.08,413.5h6.45c7,0,11.46,3.47,11.46,11.31s-4.49,11.51-11.17,11.51h-6.74Zm6.14,18.67c3.87,0,6.49-1.9,6.49-7.36s-2.62-7.15-6.49-7.15h-1v14.51Z" transform="translate(-174.07 -140.45)"/><path class="cls-3" d="M295.31,413.5h5.63l3.7,10.14c.45,1.35.85,2.81,1.31,4.21h.14c.46-1.4.85-2.86,1.3-4.21L311,413.5h5.63v22.82h-4.7V428c0-2.23.42-5.55.66-7.75h-.14l-1.87,5.39-3.23,8.74h-2.86l-3.23-8.74-1.82-5.39h-.14c.24,2.2.66,5.52.66,7.75v8.37h-4.63Z" transform="translate(-174.07 -140.45)"/></svg>