<svg id="Livello_1" data-name="Livello 1" xmlns="http://www.w3.org/2000/svg" viewBox="0 0 205.71 502.27"><defs><style>.cls-1,.cls-3{fill:#1d1d1b;}.cls-1,.cls-4,.cls-5{stroke:#1d1d1b;stroke-width:5px;}.cls-1,.cls-4,.cls-5,.cls-6{stroke-miterlimit:10;}.cls-2{fill:#cd1417;}.cls-4,.cls-6{fill:none;}.cls-5{fill:#7a2684;}.cls-6{stroke:#7a2684;stroke-width:11px;}.cls-7{fill:#fefeff;}</style></defs><polygon class="cls-1" points="32.35 113.17 69.61 85.09 12.68 7.88 2.63 73.12 32.35 113.17"/><circle class="cls-2" cx="91.64" cy="149.59" r="70.81"/><circle class="cls-3" cx="91.91" cy="149.87" r="34.11"/><polygon class="cls-4" points="2.63 73.22 110.03 219.95 148.36 191.89 12.58 6.39 2.63 73.22"/><polygon class="cls-1" points="185.27 187.63 94.83 253.83 75.04 250.45 188.01 167.76 185.27 187.63"/><rect class="cls-5" x="304.12" y="249.32" width="29.37" height="10.27" transform="translate(-263.56 209.11) rotate(-36.2)"/><rect class="cls-5" x="311.76" y="259.75" width="29.37" height="10.27" transform="translate(-268.24 215.63) rotate(-36.2)"/><rect class="cls-5" x="319.07" y="269.74" width="29.37" height="10.27" transform="translate(-272.73 221.88) rotate(-36.2)"/><rect class="cls-5" x="326.72" y="280.18" width="29.37" height="10.27" transform="translate(-277.42 228.41) rotate(-36.2)"/><rect class="cls-5" x="333.95" y="290.07" width="29.37" height="10.27" transform="translate(-281.87 234.59) rotate(-36.2)"/><polygon class="cls-5" points="190.91 265.07 166.83 282.69 167.1 295.84 198.59 300.02 202.95 269.45 190.91 265.07"/><circle class="cls-6" cx="91.64" cy="149.59" r="39.37"/><circle class="cls-7" cx="115.28" cy="125.96" r="15.73"/><path class="cls-3" d="M273.84,301.38h6.45c7,0,11.45,3.47,11.45,11.31s-4.49,11.5-11.17,11.5h-6.73ZM280,320c3.87,0,6.49-1.9,6.49-7.35s-2.62-7.16-6.49-7.16h-1V320Z" transform="translate(-174.82 -28.32)"/><path class="cls-3" d="M296.06,301.38h5.63l3.7,10.14c.46,1.34.86,2.8,1.31,4.21h.14c.46-1.41.85-2.87,1.3-4.21l3.59-10.14h5.63v22.81h-4.7v-8.37c0-2.22.42-5.54.66-7.75h-.14l-1.87,5.4-3.23,8.74h-2.86L302,313.47l-1.82-5.4H300c.24,2.21.66,5.53.66,7.75v8.37h-4.63Z" transform="translate(-174.82 -28.32)"/><circle class="cls-7" cx="101.57" cy="492.46" r="9.81"/></svg>